<?xml version="1.0" standalone="no"?>
<!DOCTYPE svg PUBLIC "-//W3C//DTD SVG 20010904//EN"
 "http://www.w3.org/TR/2001/REC-SVG-20010904/DTD/svg10.dtd">
<svg version="1.0" xmlns="http://www.w3.org/2000/svg"
 width="512.000000pt" height="512.000000pt" viewBox="0 0 512.000000 512.000000"
 preserveAspectRatio="xMidYMid meet">

<g transform="translate(0.000000,512.000000) scale(0.100000,-0.100000)"
fill="#000000" stroke="none">
<path d="M2370 5114 c-458 -55 -741 -142 -1084 -334 -116 -65 -139 -95 -112
-148 27 -52 58 -52 146 -3 41 23 126 67 189 98 465 226 1001 297 1509 198 488
-95 926 -333 1272 -691 184 -190 316 -377 430 -609 85 -173 132 -300 175 -470
55 -219 69 -342 69 -595 0 -253 -14 -376 -69 -595 -214 -849 -897 -1530 -1745
-1741 -332 -82 -672 -95 -1003 -38 -928 160 -1693 868 -1922 1779 -55 219 -69
342 -69 595 0 253 14 376 69 595 43 169 90 297 175 470 128 261 285 472 519
696 139 134 150 153 114 198 -10 11 -32 24 -48 27 -38 7 -69 -16 -224 -169
-411 -406 -661 -909 -742 -1497 -18 -125 -18 -515 0 -640 81 -588 330 -1090
742 -1497 468 -463 1052 -715 1709 -740 717 -27 1403 246 1907 758 464 471
715 1051 740 1709 26 711 -242 1392 -748 1899 -395 394 -883 639 -1449 726
-100 15 -473 28 -550 19z"/>
<path d="M2336 4649 c-263 -28 -568 -124 -791 -251 -173 -97 -339 -221 -355
-262 -9 -27 7 -74 30 -86 35 -19 67 -10 126 36 75 59 171 124 181 124 4 0 28
-37 53 -81 65 -117 100 -140 154 -98 18 14 26 30 26 51 0 27 -40 111 -87 185
-14 21 -12 23 44 51 88 44 240 99 366 131 96 25 319 61 377 61 16 0 18 -12 22
-111 3 -107 4 -112 31 -135 35 -30 59 -30 94 0 27 23 28 28 31 135 3 88 7 111
19 111 7 0 57 -5 111 -11 199 -21 431 -86 611 -170 82 -38 83 -39 69 -61 -48
-75 -88 -159 -88 -186 0 -21 8 -37 26 -51 54 -42 89 -19 154 98 25 44 50 81
55 81 30 -1 216 -151 340 -275 124 -124 274 -310 275 -340 0 -5 -37 -30 -81
-55 -117 -65 -140 -100 -98 -154 14 -18 30 -26 51 -26 27 0 111 40 186 88 22
14 23 13 61 -69 84 -180 149 -412 170 -611 6 -54 11 -104 11 -111 0 -12 -23
-16 -111 -19 -107 -3 -112 -4 -135 -31 -29 -34 -30 -56 -3 -91 20 -25 24 -26
129 -26 65 0 111 -4 115 -10 11 -17 -14 -215 -41 -339 -30 -134 -80 -283 -135
-400 l-39 -83 -25 16 c-71 47 -175 94 -194 89 -26 -7 -61 -49 -61 -73 0 -31
36 -64 119 -110 44 -25 81 -49 81 -53 1 -33 -192 -270 -313 -384 -117 -110
-299 -246 -310 -232 -2 2 -75 130 -163 284 -87 154 -167 288 -176 297 -39 40
-118 3 -118 -54 0 -21 46 -110 146 -287 81 -141 155 -270 166 -288 l19 -32
-58 -29 c-183 -92 -452 -165 -689 -187 l-72 -7 -4 112 c-3 108 -4 113 -31 136
-35 30 -59 30 -94 0 -27 -23 -28 -28 -31 -135 -3 -61 -8 -111 -12 -111 -4 0
-54 5 -111 11 -201 20 -431 83 -608 165 -92 43 -93 44 -79 66 48 75 88 159 88
186 0 21 -8 37 -26 51 -54 42 -89 19 -154 -98 -25 -44 -49 -81 -55 -81 -30 1
-216 151 -340 275 -124 124 -274 310 -275 340 0 6 37 30 81 55 83 46 119 79
119 110 0 24 -35 66 -61 73 -19 5 -123 -42 -193 -88 -24 -16 -25 -16 -47 27
-31 62 -58 88 -91 88 -34 0 -78 -39 -78 -70 0 -29 95 -209 170 -320 331 -494
825 -812 1425 -917 151 -26 519 -24 675 5 322 59 615 182 879 370 172 122 395
353 518 537 469 700 469 1630 0 2330 -114 170 -322 391 -477 507 -434 325
-964 473 -1494 417z"/>
<path d="M2516 3959 l-26 -20 0 -539 0 -539 -54 -24 c-66 -30 -128 -92 -153
-152 l-18 -45 -827 0 c-814 0 -828 0 -828 19 0 46 32 263 52 346 26 115 79
267 129 374 38 82 39 83 61 69 75 -48 159 -88 186 -88 21 0 37 8 51 26 42 54
19 89 -98 154 -44 25 -81 49 -81 53 0 10 65 106 124 181 51 65 57 100 28 137
-13 15 -30 22 -52 22 -43 0 -92 -52 -195 -207 -225 -341 -338 -691 -352 -1096
-7 -217 21 -468 70 -617 17 -53 57 -72 103 -49 43 20 50 49 30 128 -24 98 -45
236 -48 318 l-3 75 822 3 822 2 20 -46 c33 -75 77 -121 146 -155 55 -27 74
-31 142 -31 l78 1 168 -293 c92 -162 174 -299 183 -306 22 -19 70 -16 94 5 41
37 29 66 -149 378 l-168 295 24 30 c13 17 33 52 44 77 l20 45 328 0 c316 0
329 1 346 20 25 28 23 76 -4 103 -21 22 -27 22 -349 25 l-327 3 -19 45 c-24
59 -90 126 -148 150 l-47 19 -3 538 -3 539 -28 24 c-34 29 -56 30 -91 3z m105
-1255 c28 -8 80 -71 89 -108 25 -111 -76 -211 -187 -186 -20 5 -51 24 -70 43
-62 62 -62 153 0 215 46 46 93 56 168 36z"/>
</g>
</svg>
