<?xml version="1.0" standalone="no"?>
<!DOCTYPE svg PUBLIC "-//W3C//DTD SVG 20010904//EN"
 "http://www.w3.org/TR/2001/REC-SVG-20010904/DTD/svg10.dtd">
<svg version="1.0" xmlns="http://www.w3.org/2000/svg"
 width="1157.000000pt" height="1170.000000pt" viewBox="0 0 1157.000000 1170.000000"
 preserveAspectRatio="xMidYMid meet">

<g transform="translate(0.000000,1170.000000) scale(0.100000,-0.100000)"
fill="#000000" stroke="none">
<path d="M970 6115 l0 -4875 4865 0 4865 0 0 4875 0 4875 -4865 0 -4865 0 0
-4875z m9680 -5 l0 -4820 -4815 0 -4815 0 0 4820 0 4820 4815 0 4815 0 0
-4820z"/>
<path d="M5045 9726 c-434 -276 -1014 -643 -1287 -816 -273 -173 -922 -584
-1442 -914 l-944 -598 29 -47 c16 -25 33 -46 38 -46 5 0 458 287 1007 638
2620 1675 3352 2141 3385 2155 10 4 186 -108 1129 -722 454 -296 908 -592
1010 -658 102 -66 634 -412 1182 -769 549 -357 1001 -649 1005 -649 5 0 21 21
36 47 23 38 26 48 15 59 -11 11 -393 257 -2308 1489 -967 623 -2045 1318
-2055 1325 -5 4 -365 -218 -800 -494z"/>
<path d="M2052 7525 l3 -40 118 -35 c65 -19 122 -42 127 -50 6 -9 10 -398 10
-977 0 -842 -2 -963 -15 -977 -14 -14 -37 -22 -182 -61 -54 -15 -63 -21 -63
-40 0 -58 -18 -55 362 -55 l350 0 -6 23 c-3 12 -6 30 -6 39 0 13 -25 25 -100
48 -64 20 -103 37 -110 49 -6 12 -10 323 -12 836 -3 757 -2 814 13 779 9 -22
173 -432 365 -913 l349 -873 69 5 c38 3 73 10 77 14 4 4 137 323 294 708 157
385 327 800 377 923 50 122 91 221 92 220 1 -2 -1 -384 -4 -850 -4 -599 -8
-850 -16 -858 -6 -6 -55 -24 -109 -41 -54 -16 -100 -31 -103 -34 -2 -2 -1 -20
2 -40 l7 -35 484 0 485 0 0 39 0 38 -116 33 c-80 23 -120 39 -130 54 -12 17
-14 158 -14 974 l0 953 23 22 c14 14 62 33 130 51 l107 29 0 41 0 41 -395 0
-395 0 -14 -35 c-8 -19 -149 -367 -315 -774 -166 -406 -304 -749 -307 -762 -3
-13 -9 -24 -13 -24 -3 0 -105 251 -226 558 -120 306 -262 664 -315 796 l-95
238 -393 2 -393 1 3 -40z"/>
<path d="M5202 7525 l3 -40 118 -35 c65 -19 122 -42 127 -50 6 -9 10 -398 10
-977 0 -842 -2 -963 -15 -977 -14 -14 -37 -22 -182 -61 -63 -18 -63 -18 -63
-55 l0 -37 515 -6 c334 -4 552 -3 618 4 424 43 676 210 769 509 19 62 23 97
23 205 0 111 -4 141 -24 205 -54 163 -170 273 -346 330 -151 48 -301 63 -575
58 l-235 -5 3 404 2 403 335 0 334 0 14 -52 c9 -29 37 -130 63 -225 l47 -171
36 5 c20 3 39 8 43 12 5 5 102 512 111 581 2 13 -105 15 -866 15 l-868 0 3
-40z m1169 -1113 c163 -64 239 -237 226 -512 -10 -184 -51 -295 -138 -374 -83
-75 -137 -90 -314 -91 -82 0 -161 3 -175 7 l-25 7 0 488 c0 479 0 488 20 495
11 4 94 6 185 4 142 -2 173 -5 221 -24z"/>
<path d="M7210 7535 c0 -16 4 -35 8 -41 4 -6 43 -21 87 -34 103 -29 155 -59
187 -107 13 -21 197 -374 407 -784 l383 -747 44 -12 c24 -7 44 -16 44 -19 0
-15 -105 -189 -145 -241 -118 -153 -241 -229 -436 -268 -93 -19 -94 -20 -94
-48 l0 -29 294 -3 c336 -3 327 -5 403 91 61 78 100 164 301 662 395 981 529
1310 557 1366 39 76 76 102 193 135 l98 28 -3 39 -3 39 -368 2 -367 1 0 -41 0
-42 83 -22 c87 -24 117 -36 129 -54 16 -23 7 -86 -26 -182 -77 -227 -384
-1004 -396 -1004 -3 0 -13 21 -24 48 -10 26 -133 273 -272 550 -269 533 -279
557 -236 600 10 10 57 29 106 42 l87 23 -3 40 -3 40 -517 1 -518 1 0 -30z"/>
<path d="M1757 5143 c-4 -3 -7 -35 -7 -70 l0 -63 4050 0 4050 0 0 70 0 70
-4043 0 c-2224 0 -4047 -3 -4050 -7z"/>
<path d="M8506 4094 c-21 -21 -20 -47 2 -67 27 -24 59 -21 78 8 15 23 15 27 0
50 -19 29 -56 33 -80 9z"/>
<path d="M8672 4098 c-7 -7 -12 -24 -12 -38 0 -49 51 -68 83 -32 34 37 15 82
-33 82 -14 0 -31 -5 -38 -12z"/>
<path d="M3479 3718 c-97 -235 -107 -254 -137 -267 -18 -8 -32 -18 -32 -23 0
-4 42 -8 93 -8 95 1 97 2 42 35 -16 9 -15 15 7 70 l24 60 81 3 80 3 21 -57
c27 -70 27 -72 -3 -86 -14 -6 -25 -14 -25 -18 0 -12 351 -20 373 -9 47 26 112
233 125 402 l7 92 53 3 52 3 0 -235 0 -234 -30 -7 c-64 -14 -25 -25 90 -25
120 0 147 9 90 29 l-30 10 0 235 0 234 30 7 c75 17 16 25 -175 25 -198 0 -247
-8 -167 -27 l37 -9 -3 -65 c-7 -148 -65 -310 -135 -378 -44 -42 -108 -49 -135
-15 -10 11 -55 129 -102 262 -74 212 -88 242 -106 242 -18 0 -36 -35 -125
-252z m141 -80 c0 -5 -29 -8 -64 -8 l-64 0 28 73 c15 39 30 81 34 92 5 14 14
-2 36 -65 16 -47 30 -88 30 -92z"/>
<path d="M8166 3918 c-12 -29 -60 -144 -106 -255 -80 -193 -85 -203 -117 -214
-57 -18 -36 -29 57 -29 87 0 118 12 65 26 -31 8 -32 26 -4 93 l22 51 79 0 79
0 15 -37 c9 -20 18 -51 21 -69 5 -27 2 -32 -21 -38 -14 -3 -26 -11 -26 -16 0
-6 51 -10 128 -10 114 1 125 2 108 15 -11 8 -26 15 -33 15 -7 0 -17 10 -24 21
-9 18 -179 487 -179 496 0 2 -9 3 -21 3 -15 0 -26 -14 -43 -52z m33 -201 l30
-87 -66 0 c-48 0 -64 3 -60 13 2 6 17 47 33 89 15 42 30 76 31 74 2 -2 16 -42
32 -89z"/>
<path d="M9696 3962 c-3 -5 -178 -425 -203 -489 -3 -7 -20 -18 -39 -25 -19 -6
-34 -16 -34 -20 0 -4 41 -8 90 -8 87 0 118 12 65 26 -30 8 -31 18 -4 89 l20
55 83 0 82 0 17 -53 c23 -72 22 -84 -8 -91 -14 -4 -25 -11 -25 -16 0 -6 50
-10 125 -10 119 0 160 11 95 25 -17 4 -35 15 -41 26 -5 11 -41 108 -80 217
-103 289 -100 282 -120 282 -10 0 -20 -3 -23 -8z m13 -245 l30 -87 -65 0 c-36
0 -64 4 -62 8 2 4 16 45 33 89 16 45 31 81 32 79 2 -2 16 -42 32 -89z"/>
<path d="M1630 3951 c0 -5 14 -12 30 -16 l30 -7 0 -238 0 -237 -30 -6 c-60
-13 -30 -27 55 -27 83 0 112 13 60 26 -14 3 -27 16 -30 28 -3 11 -4 100 -3
196 l3 175 85 -210 c68 -167 90 -211 106 -213 17 -2 31 26 103 205 47 114 88
215 92 223 5 8 9 -76 9 -188 l0 -203 -30 -10 c-57 -20 -30 -29 90 -29 120 0
149 9 88 26 l-33 10 0 234 0 234 33 10 c58 16 34 26 -66 26 l-98 0 -74 -185
c-41 -102 -76 -185 -79 -185 -3 0 -38 82 -78 183 l-72 182 -95 3 c-57 2 -96
-1 -96 -7z"/>
<path d="M2390 3952 c0 -4 14 -13 30 -19 l30 -11 0 -232 0 -231 -30 -10 c-16
-6 -30 -15 -30 -20 0 -5 88 -9 200 -9 l200 0 0 54 c0 30 3 61 6 70 4 11 1 16
-11 16 -11 0 -24 -18 -38 -50 l-21 -50 -78 0 -78 0 0 110 0 110 44 0 c45 0 61
-11 67 -44 2 -11 10 -21 17 -24 9 -3 12 18 12 83 0 63 -3 86 -12 83 -7 -3 -16
-19 -20 -36 -8 -31 -11 -32 -58 -32 l-50 0 0 105 0 105 74 0 73 0 13 -45 c7
-25 18 -44 24 -42 6 2 16 31 22 65 l11 62 -198 0 c-110 0 -199 -4 -199 -8z"/>
<path d="M2802 3888 c2 -42 7 -72 13 -72 6 1 18 25 29 53 l19 51 58 0 59 0 -1
-187 c0 -104 -4 -208 -7 -233 -6 -39 -11 -45 -39 -54 -64 -18 -31 -26 103 -26
133 0 163 9 91 28 l-32 8 -3 232 -2 232 58 0 59 0 12 -56 c15 -67 35 -60 45
16 4 28 9 57 12 65 5 13 -26 15 -235 15 l-242 0 3 -72z"/>
<path d="M4490 3951 c0 -5 14 -12 30 -16 l30 -7 0 -238 0 -238 -30 -7 c-16 -4
-30 -11 -30 -16 0 -7 62 -9 168 -7 146 3 172 6 207 24 60 31 85 75 85 146 0
52 -4 63 -28 88 -36 36 -87 50 -179 50 l-73 0 0 95 0 96 82 -3 82 -3 16 -54
c18 -63 33 -56 45 23 3 27 9 55 12 62 4 12 -31 14 -206 14 -122 0 -211 -4
-211 -9z m307 -285 c24 -21 27 -31 28 -83 0 -96 -32 -133 -115 -133 l-40 0 0
120 0 120 49 0 c38 0 56 -6 78 -24z"/>
<path d="M4970 3954 c0 -3 16 -12 34 -19 31 -13 44 -33 127 -196 50 -99 98
-187 106 -195 13 -12 11 -18 -8 -46 -31 -46 -58 -66 -101 -78 -50 -14 -48 -27
6 -35 54 -9 112 9 129 38 6 12 55 128 107 257 89 217 98 236 128 249 18 8 32
18 32 23 0 4 -38 8 -85 8 -83 0 -111 -11 -60 -24 14 -4 25 -13 25 -20 0 -8
-23 -74 -52 -147 l-51 -133 -68 135 c-37 74 -68 137 -68 142 -1 4 10 13 24 19
14 6 25 15 25 20 0 4 -56 8 -125 8 -69 0 -125 -2 -125 -6z"/>
<path d="M5660 3950 c0 -5 16 -12 35 -16 19 -3 37 -9 39 -13 8 -12 -14 -164
-35 -241 -11 -41 -37 -106 -57 -145 -35 -67 -39 -70 -76 -73 l-38 -3 6 -62
c13 -122 18 -147 31 -147 12 0 45 113 45 154 0 14 25 16 195 16 194 0 195 0
200 -22 3 -13 11 -50 18 -83 8 -40 18 -61 28 -63 14 -2 18 12 23 80 4 46 10
93 13 105 4 20 0 22 -39 25 l-43 3 -3 228 -2 228 30 10 c16 6 30 15 30 20 0 5
-88 9 -200 9 -120 0 -200 -4 -200 -10z m228 -262 l2 -228 -116 0 c-63 0 -114
3 -112 8 2 4 16 31 32 61 34 66 71 209 81 314 l7 78 52 -3 51 -3 3 -227z"/>
<path d="M6290 3953 c0 -5 15 -15 33 -23 27 -13 45 -41 124 -194 50 -99 98
-185 106 -191 13 -9 10 -18 -19 -57 -25 -36 -45 -51 -84 -65 -27 -10 -50 -21
-50 -25 0 -4 20 -10 44 -13 55 -9 111 9 132 40 8 13 59 130 112 261 94 230 98
239 130 248 57 16 35 26 -58 26 -87 0 -117 -11 -65 -24 15 -4 25 -14 25 -24 0
-14 -43 -133 -91 -251 -8 -21 -16 -9 -74 109 -36 72 -65 137 -65 145 0 8 11
17 25 21 57 14 17 24 -100 24 -69 0 -125 -3 -125 -7z"/>
<path d="M6870 3951 c0 -5 14 -12 30 -16 l30 -7 0 -238 0 -237 -30 -6 c-16 -4
-30 -11 -30 -17 0 -6 45 -10 120 -10 66 0 120 4 120 8 0 4 -13 13 -30 19 l-30
11 0 107 0 106 27 -3 c28 -3 31 -8 123 -169 41 -72 71 -89 154 -89 59 0 81 15
44 29 -35 14 -70 57 -134 166 -33 55 -60 103 -62 107 -2 3 12 28 31 55 19 26
44 67 56 90 24 47 55 73 88 73 14 0 23 6 23 15 0 12 -15 15 -72 15 -40 0 -79
-4 -86 -9 -7 -4 -26 -51 -41 -105 -34 -117 -49 -136 -108 -136 l-43 0 0 109 0
109 30 7 c64 14 25 25 -90 25 -66 0 -120 -4 -120 -9z"/>
<path d="M7450 3954 c0 -3 16 -12 35 -20 l35 -14 0 -231 0 -230 -30 -10 c-57
-20 -30 -29 90 -29 120 0 147 9 90 29 l-30 10 0 90 0 91 48 0 c149 0 238 85
219 207 -8 44 -30 70 -82 94 -34 16 -66 19 -207 19 -93 0 -168 -2 -168 -6z
m275 -38 c44 -19 55 -42 55 -116 0 -55 -3 -65 -29 -91 -23 -23 -39 -29 -70
-29 l-41 0 0 118 c0 65 3 122 7 125 10 11 41 8 78 -7z"/>
<path d="M8500 3954 c0 -3 16 -12 35 -20 l35 -14 -2 -232 -3 -232 -32 -10
c-63 -17 -32 -26 92 -26 124 0 155 9 93 26 l-33 10 0 234 0 234 33 10 c62 17
31 26 -93 26 -69 0 -125 -2 -125 -6z"/>
<path d="M8820 3952 c0 -4 14 -13 30 -19 l30 -11 0 -232 0 -231 -30 -10 c-56
-20 -30 -29 85 -29 69 0 115 4 115 10 0 5 -11 12 -25 16 -25 6 -25 7 -25 120
l0 114 115 0 115 0 0 -111 0 -111 -30 -11 c-16 -6 -30 -15 -30 -19 0 -4 54 -8
120 -8 75 0 120 4 120 10 0 6 -13 13 -30 17 l-30 6 0 237 0 238 30 7 c64 14
25 25 -90 25 -115 0 -154 -11 -90 -25 l30 -7 0 -99 0 -99 -115 0 -115 0 0 100
c0 98 0 100 25 106 56 14 18 24 -90 24 -63 0 -115 -4 -115 -8z"/>
</g>
</svg>
